<svg id="Grupo_3270" data-name="Grupo 3270" xmlns="http://www.w3.org/2000/svg" xmlns:xlink="http://www.w3.org/1999/xlink" width="118.742" height="118.742" viewBox="0 0 118.742 118.742">
  <defs>
    <clipPath id="clip-path">
      <rect id="Rectángulo_279" data-name="Rectángulo 279" width="118.742" height="118.742" fill="none"/>
    </clipPath>
  </defs>
  <g id="Grupo_85" data-name="Grupo 85" transform="translate(0 0)" clip-path="url(#clip-path)">
    <path id="Trazado_79" data-name="Trazado 79" d="M59.371,0a59.371,59.371,0,1,0,59.371,59.371A59.372,59.372,0,0,0,59.371,0m0,103.974a44.6,44.6,0,1,1,44.6-44.6,44.6,44.6,0,0,1-44.6,44.6" transform="translate(0 0.001)" fill="#fff"/>
    <path id="Trazado_80" data-name="Trazado 80" d="M50.172,8.289A41.883,41.883,0,1,0,92.053,50.173,41.882,41.882,0,0,0,50.172,8.289m0,67.04A25.157,25.157,0,1,1,75.328,50.173,25.156,25.156,0,0,1,50.172,75.329" transform="translate(9.199 9.199)" fill="#fff"/>
    <path id="Trazado_81" data-name="Trazado 81" d="M32.418,24.289a8.13,8.13,0,1,0,8.129,8.129,8.129,8.129,0,0,0-8.129-8.129" transform="translate(26.953 26.954)" fill="#fff"/>
  </g>
</svg>
