<svg xmlns="http://www.w3.org/2000/svg" xmlns:xlink="http://www.w3.org/1999/xlink" width="190.338" height="41.286" viewBox="0 0 190.338 41.286">
  <defs>
    <clipPath id="clip-path">
      <rect id="Rect치ngulo_337" data-name="Rect치ngulo 337" width="190.338" height="41.286" fill="none"/>
    </clipPath>
  </defs>
  <g id="Grupo_3271" data-name="Grupo 3271" transform="translate(-334 -30)">
    <g id="Grupo_185" data-name="Grupo 185" transform="translate(334 30)" clip-path="url(#clip-path)">
      <path id="Trazado_95" data-name="Trazado 95" d="M190.155,1.064a19.777,19.777,0,1,0,19.777,19.777A19.777,19.777,0,0,0,190.155,1.064m0,34.24a14.463,14.463,0,1,1,14.463-14.463A14.479,14.479,0,0,1,190.155,35.3" transform="translate(-74.103 -0.463)" fill="#fcd743"/>
      <path id="Trazado_96" data-name="Trazado 96" d="M0,.064H11.375C21.936.064,26.124,5.876,26.124,20.5c0,14.749-4,20.686-13.937,20.686H0ZM12,33.187c3.5,0,4.812-3.625,4.812-12.686,0-8.875-1.375-12.437-5.125-12.437H9.25V33.187Z" transform="translate(0 -0.028)" fill="#fff"/>
      <rect id="Rect치ngulo_336" data-name="Rect치ngulo 336" width="9.02" height="41.25" transform="translate(29.396 0.036)" fill="#fff"/>
      <path id="Trazado_97" data-name="Trazado 97" d="M73.3,26.575h7.984c0,5.79,1.036,7.436,4.266,7.436,2.621,0,3.718-1.524,3.718-4.084,0-2.133-.549-3.047-1.524-3.779a23.353,23.353,0,0,0-5.242-2.377,18.416,18.416,0,0,1-6.156-3.353c-1.829-1.523-3.108-4.449-3.108-8.472C73.241,4.693,77.812,0,85.553,0c9.021,0,11.886,4.388,11.886,14.811H89.575c0-6.339-1.036-7.741-3.84-7.741-2.133,0-3.475,1.524-3.475,4.023,0,2.377.549,3.414,1.4,4.145a23.223,23.223,0,0,0,5.364,2.56,19.387,19.387,0,0,1,6.1,3.23c2.011,1.707,3.169,4.571,3.169,8.229,0,7.131-4.389,11.824-12.739,11.824-9.874,0-12.251-5.668-12.251-14.506" transform="translate(-31.855 0)" fill="#fff"/>
      <path id="Trazado_98" data-name="Trazado 98" d="M121.425,20.541C121.425,6.461,125.509,0,134.346,0c8.228,0,12.007,4.632,12.007,14.689,0,1.158-.061,2.925-.122,4.084h-7.679c.06-1.463.06-2.743.06-3.657,0-5.242-1.158-7.314-3.6-7.314-3.047,0-4.388,3.23-4.388,12.739,0,9.325,1.341,12.738,4.571,12.738,2.255,0,3.474-1.828,3.474-7.07,0-.853-.061-2.072-.121-2.864h7.74c.061.731.122,1.89.122,3.047,0,9.508-3.84,14.689-12.129,14.689-8.656,0-12.86-6.7-12.86-20.54" transform="translate(-52.812 0)" fill="#fff"/>
      <path id="Trazado_99" data-name="Trazado 99" d="M268.8,40.593h-7.07c0-.061.244-2.682.244-5.607h-.061c-.854,4.205-3.108,6.095-7.132,6.095-7.68,0-11.215-6.278-11.215-20.053C243.57,6.583,247.715,0,256.8,0c8.167,0,11.885,4.389,11.885,14.019,0,1.28-.061,2.925-.122,3.779H260.88c.061-1.341.061-2.621.061-3.23,0-4.632-1.158-6.766-3.718-6.766-3.108,0-4.511,4.206-4.511,13.348,0,8.472,1.341,12.373,4.328,12.373,2.5,0,3.657-2.073,3.657-6.644v-.792h-4.083V20.48H268.8Z" transform="translate(-105.937 0)" fill="#fff"/>
      <path id="Trazado_100" data-name="Trazado 100" d="M292.571,26.575h7.984c0,5.79,1.036,7.436,4.266,7.436,2.621,0,3.718-1.524,3.718-4.084,0-2.133-.549-3.047-1.524-3.779a23.352,23.352,0,0,0-5.242-2.377,18.416,18.416,0,0,1-6.156-3.353c-1.829-1.523-3.108-4.449-3.108-8.472C292.51,4.693,297.081,0,304.822,0c9.021,0,11.886,4.388,11.886,14.811h-7.863c0-6.339-1.036-7.741-3.84-7.741-2.133,0-3.475,1.524-3.475,4.023,0,2.377.549,3.414,1.4,4.145A23.222,23.222,0,0,0,308.3,17.8a19.388,19.388,0,0,1,6.1,3.23c2.012,1.707,3.169,4.571,3.169,8.229,0,7.131-4.388,11.824-12.739,11.824-9.874,0-12.251-5.668-12.251-14.506" transform="translate(-127.222 0)" fill="#fff"/>
      <path id="Trazado_101" data-name="Trazado 101" d="M195.116,12.47A13.333,13.333,0,1,0,208.449,25.8,13.348,13.348,0,0,0,195.116,12.47m0,21.351a8.018,8.018,0,1,1,8.018-8.018,8.018,8.018,0,0,1-8.018,8.018" transform="translate(-79.063 -5.424)" fill="#fcd743"/>
      <path id="Trazado_102" data-name="Trazado 102" d="M205.994,34.007a2.672,2.672,0,1,0-2.673,2.673,2.673,2.673,0,0,0,2.673-2.673" transform="translate(-87.269 -13.628)" fill="#fcd743"/>
    </g>
  </g>
</svg>
