<svg id="icono_lupa" data-name="icono lupa" xmlns="http://www.w3.org/2000/svg" width="42.991" height="43.5" viewBox="0 0 42.991 43.5">
  <path id="search_FILL0_wght400_GRAD0_opsz48" d="M159.712,257.946l-14.634-14.828a13.347,13.347,0,0,1-4.248,2.492,14.845,14.845,0,0,1-5.164.892,15.014,15.014,0,0,1-11.117-4.615,15.9,15.9,0,0,1,0-22.273,15.432,15.432,0,0,1,22.012,0,15.341,15.341,0,0,1,4.524,11.146,15.5,15.5,0,0,1-.85,5.1,15.676,15.676,0,0,1-2.55,4.615L162.444,255.3a1.69,1.69,0,0,1,.546,1.275,1.9,1.9,0,0,1-.6,1.365,1.829,1.829,0,0,1-1.355.559A1.734,1.734,0,0,1,159.712,257.946ZM135.605,242.81a11.283,11.283,0,0,0,8.387-3.538,12.24,12.24,0,0,0,0-17.043,11.283,11.283,0,0,0-8.387-3.538,11.456,11.456,0,0,0-8.473,3.538,12.151,12.151,0,0,0,0,17.043A11.456,11.456,0,0,0,135.605,242.81Z" transform="translate(-120 -215)" fill="#fcd743"/>
</svg>
