<?xml version="1.0" encoding="UTF-8"?><svg id="Capa_1" xmlns="http://www.w3.org/2000/svg" xmlns:xlink="http://www.w3.org/1999/xlink" viewBox="0 0 190.35 41.29"><defs><style>.cls-1{fill:#fff;}.cls-2,.cls-3{fill:none;}.cls-3{clip-path:url(#clippath);}</style><clipPath id="clippath"><rect class="cls-2" width="190.34" height="41.29"/></clipPath></defs><g id="Grupo_3271"><g class="cls-3"><path id="Trazado_95" class="cls-1" d="m116.05.6c-10.92,0-19.78,8.85-19.78,19.78s8.85,19.78,19.78,19.78,19.78-8.85,19.78-19.78S126.97.6,116.05.6h0m0,34.24c-7.99,0-14.46-6.48-14.46-14.46s6.48-14.46,14.46-14.46c7.99,0,14.46,6.48,14.46,14.46h0c-.01,7.98-6.48,14.45-14.46,14.46"/><path id="Trazado_96" d="m0,.04h11.38C21.94.04,26.12,5.85,26.12,20.47s-4,20.69-13.94,20.69H0V.04Zm12,33.12c3.5,0,4.81-3.62,4.81-12.69s-1.38-12.44-5.12-12.44h-2.44v25.12h2.75Z"/><rect id="Rectángulo_336" x="29.4" y=".04" width="9.02" height="41.25"/><path id="Trazado_97" d="m41.45,26.58h7.98c0,5.79,1.04,7.44,4.27,7.44,2.62,0,3.72-1.52,3.72-4.08,0-2.13-.55-3.05-1.52-3.78-1.64-1.01-3.4-1.8-5.24-2.38-2.25-.71-4.34-1.85-6.16-3.35-1.83-1.52-3.11-4.45-3.11-8.47,0-7.25,4.57-11.95,12.31-11.95,9.02,0,11.89,4.39,11.89,14.81h-7.86c0-6.34-1.04-7.74-3.84-7.74-2.13,0-3.47,1.52-3.47,4.02s.55,3.41,1.4,4.14c1.67,1.08,3.47,1.94,5.36,2.56,2.21.7,4.28,1.8,6.1,3.23,2.01,1.71,3.17,4.57,3.17,8.23,0,7.13-4.39,11.82-12.74,11.82-9.87,0-12.25-5.67-12.25-14.51"/><path id="Trazado_98" d="m68.61,20.54c0-14.08,4.08-20.54,12.92-20.54,8.23,0,12.01,4.63,12.01,14.69,0,1.16-.06,2.93-.12,4.08h-7.68c.06-1.46.06-2.74.06-3.66,0-5.24-1.16-7.31-3.6-7.31-3.05,0-4.39,3.23-4.39,12.74s1.34,12.74,4.57,12.74c2.26,0,3.47-1.83,3.47-7.07,0-.85-.06-2.07-.12-2.86h7.74c.06.73.12,1.89.12,3.05,0,9.51-3.84,14.69-12.13,14.69s-12.86-6.7-12.86-20.54"/><path id="Trazado_99" d="m162.86,40.59h-7.07c0-.06.24-2.68.24-5.61h-.06c-.85,4.21-3.11,6.1-7.13,6.1-7.68,0-11.21-6.28-11.21-20.05,0-14.45,4.15-21.03,13.23-21.03,8.17,0,11.89,4.39,11.89,14.02,0,1.28-.06,2.93-.12,3.78h-7.68c.06-1.34.06-2.62.06-3.23,0-4.63-1.16-6.77-3.72-6.77-3.11,0-4.51,4.21-4.51,13.35,0,8.47,1.34,12.37,4.33,12.37,2.5,0,3.66-2.07,3.66-6.64v-.79h-4.08v-5.61h12.19v20.11Z"/><path id="Trazado_100" d="m165.35,26.58h7.98c0,5.79,1.04,7.44,4.27,7.44,2.62,0,3.72-1.52,3.72-4.08,0-2.13-.55-3.05-1.52-3.78-1.64-1.01-3.4-1.8-5.24-2.38-2.25-.71-4.34-1.85-6.16-3.35-1.83-1.52-3.11-4.45-3.11-8.47,0-7.25,4.57-11.95,12.31-11.95,9.02,0,11.89,4.39,11.89,14.81h-7.86c0-6.34-1.04-7.74-3.84-7.74-2.13,0-3.48,1.52-3.48,4.02s.55,3.41,1.4,4.14c1.67,1.08,3.48,1.94,5.37,2.56,2.21.7,4.28,1.8,6.1,3.23,2.01,1.71,3.17,4.57,3.17,8.23,0,7.13-4.39,11.82-12.74,11.82-9.87,0-12.25-5.67-12.25-14.51"/><path id="Trazado_101" class="cls-1" d="m116.05,7.05c-7.36,0-13.33,5.97-13.33,13.33s5.97,13.33,13.33,13.33,13.33-5.97,13.33-13.33h0c0-7.36-5.97-13.32-13.33-13.33m0,21.35c-4.43,0-8.02-3.59-8.02-8.02s3.59-8.02,8.02-8.02c4.43,0,8.02,3.59,8.02,8.02s-3.59,8.02-8.02,8.02h0"/><path id="Trazado_102" class="cls-1" d="m118.73,20.38c0-1.48-1.2-2.67-2.67-2.67s-2.67,1.2-2.67,2.67c0,1.47,1.2,2.67,2.67,2.67,1.48,0,2.67-1.2,2.67-2.67h0"/></g></g></svg>